<svg xmlns="http://www.w3.org/2000/svg" width="13.5" height="13.498" viewBox="0 0 13.5 13.498">
  <g id="Group_88669" data-name="Group 88669" transform="translate(-7.563 -7.563)">
    <path id="Path_134426" data-name="Path 134426" d="M12.386,7.813H9.016a1.2,1.2,0,0,0-1.2,1.2v3.37a1.2,1.2,0,0,0,1.2,1.2h3.37a1.2,1.2,0,0,0,1.2-1.2V9.016A1.2,1.2,0,0,0,12.386,7.813Zm.722,4.574a.724.724,0,0,1-.722.722H9.016a.724.724,0,0,1-.722-.722V9.016a.724.724,0,0,1,.722-.722h3.37a.724.724,0,0,1,.722.722Z" fill="none" stroke="#fff" stroke-width="0.5"/>
    <path id="Path_134427" data-name="Path 134427" d="M59.261,7.813h-3.37a1.2,1.2,0,0,0-1.2,1.2v3.37a1.2,1.2,0,0,0,1.2,1.2h3.37a1.2,1.2,0,0,0,1.2-1.2V9.016A1.2,1.2,0,0,0,59.261,7.813Zm.722,4.574a.724.724,0,0,1-.722.722h-3.37a.724.724,0,0,1-.722-.722V9.016a.724.724,0,0,1,.722-.722h3.37a.724.724,0,0,1,.722.722Z" transform="translate(-39.653)" fill="none" stroke="#fff" stroke-width="0.5"/>
    <path id="Path_134428" data-name="Path 134428" d="M12.386,54.688H9.016a1.2,1.2,0,0,0-1.2,1.2v3.37a1.2,1.2,0,0,0,1.2,1.2h3.37a1.2,1.2,0,0,0,1.2-1.2v-3.37A1.2,1.2,0,0,0,12.386,54.688Zm.722,4.574a.724.724,0,0,1-.722.722H9.016a.724.724,0,0,1-.722-.722v-3.37a.724.724,0,0,1,.722-.722h3.37a.724.724,0,0,1,.722.722Z" transform="translate(0 -39.654)" fill="none" stroke="#fff" stroke-width="0.5"/>
    <path id="Path_134429" data-name="Path 134429" d="M59.261,54.688h-3.37a1.2,1.2,0,0,0-1.2,1.2v3.37a1.2,1.2,0,0,0,1.2,1.2h3.37a1.2,1.2,0,0,0,1.2-1.2v-3.37A1.2,1.2,0,0,0,59.261,54.688Zm.722,4.574a.724.724,0,0,1-.722.722h-3.37a.724.724,0,0,1-.722-.722v-3.37a.724.724,0,0,1,.722-.722h3.37a.724.724,0,0,1,.722.722Z" transform="translate(-39.653 -39.654)" fill="none" stroke="#fff" stroke-width="0.5"/>
  </g>
</svg>
