<svg xmlns="http://www.w3.org/2000/svg" xmlns:xlink="http://www.w3.org/1999/xlink" width="79.272" height="116.137" viewBox="0 0 79.272 116.137">
  <defs>
    <clipPath id="clip-path">
      <rect id="Rectangle_30185" data-name="Rectangle 30185" width="79.272" height="107.288" fill="#fff" stroke="#707070" stroke-width="1"/>
    </clipPath>
  </defs>
  <g id="Group_88670" data-name="Group 88670" transform="translate(-15634 19076.559)">
    <path id="Union_74" data-name="Union 74" d="M25.017,111.717V101.494H13.471c-6.014,0-6.014-9.02,0-9.02H25.017V78.521A29.52,29.52,0,1,1,47.911,26.25L67.1,7.06H54.449a3.53,3.53,0,0,1,0-7.06H75.625a3.53,3.53,0,0,1,3.53,3.529V24.707a3.53,3.53,0,0,1-7.06,0V12.053L52.868,31.282a29.505,29.505,0,0,1-18.83,47.24V92.474H45.584c6.014,0,6.014,9.02,0,9.02H34.038v10.223a4.293,4.293,0,0,1-4.51,4.42A4.293,4.293,0,0,1,25.017,111.717ZM9.141,49.415A20.446,20.446,0,1,0,29.587,28.969,20.506,20.506,0,0,0,9.141,49.415Z" transform="translate(15634.116 -19076.559)" fill="#a759d8"/>
    <g id="Mask_Group_78878" data-name="Mask Group 78878" transform="translate(15634 -19076.559)" clip-path="url(#clip-path)">
      <path id="Union_73" data-name="Union 73" d="M25.017,111.717V101.494H13.471c-6.014,0-6.014-9.02,0-9.02H25.017V78.521A29.52,29.52,0,1,1,47.911,26.25L67.1,7.06H54.449a3.53,3.53,0,0,1,0-7.06H75.625a3.53,3.53,0,0,1,3.53,3.529V24.707a3.53,3.53,0,0,1-7.06,0V12.053L52.868,31.282a29.505,29.505,0,0,1-18.83,47.24V92.474H45.584c6.014,0,6.014,9.02,0,9.02H34.038v10.223a4.293,4.293,0,0,1-4.51,4.42A4.293,4.293,0,0,1,25.017,111.717ZM9.141,49.415A20.446,20.446,0,1,0,29.587,28.969,20.506,20.506,0,0,0,9.141,49.415Z" transform="translate(0.116)" fill="#cecece"/>
    </g>
  </g>
</svg>
