<svg id="noun-download-1519473" xmlns="http://www.w3.org/2000/svg" width="13.983" height="18.823" viewBox="0 0 13.983 18.823">
  <g id="Calque_2" data-name="Calque 2" transform="translate(0 0)">
    <path id="Path_134289" data-name="Path 134289" d="M39.114,25.93a.782.782,0,0,0-.782.782V38.833l-4.872-4.9a.782.782,0,0,0-1.107,1.107l6.209,6.209a.971.971,0,0,0,.117.1h.031l.1.055h.047a.434.434,0,0,0,.1.027.653.653,0,0,0,.152,0,.708.708,0,0,0,.156,0,.457.457,0,0,0,.1-.027h.047l.1-.055h.031l.121-.1,6.205-6.209a.782.782,0,0,0-1.107-1.107L39.9,38.814v-12.1A.782.782,0,0,0,39.114,25.93Z" transform="translate(-32.122 -25.93)" fill="#b0b0b0"/>
    <path id="Path_134290" data-name="Path 134290" d="M32.9,71.634H45.321a.782.782,0,0,0,0-1.564H32.9a.782.782,0,0,0,0,1.564Z" transform="translate(-32.12 -52.811)" fill="#b0b0b0"/>
  </g>
</svg>
