<svg xmlns="http://www.w3.org/2000/svg" width="13.439" height="13.439" viewBox="0 0 13.439 13.439">
  <g id="noun-list-6373160" transform="translate(-1 -1)">
    <g id="Group_88131" data-name="Group 88131" transform="translate(1 1)">
      <path id="Path_134530" data-name="Path 134530" d="M13.1,1H2.344A1.345,1.345,0,0,0,1,2.344V13.1a1.345,1.345,0,0,0,1.344,1.344H13.1A1.345,1.345,0,0,0,14.439,13.1V2.344A1.345,1.345,0,0,0,13.1,1Zm.448,12.1a.448.448,0,0,1-.448.448H2.344A.448.448,0,0,1,1.9,13.1V2.344A.448.448,0,0,1,2.344,1.9H13.1a.448.448,0,0,1,.448.448Zm-1.792-8.96a.448.448,0,0,1-.448.448H6.824a.448.448,0,1,1,0-.9H11.3a.448.448,0,0,1,.448.448Zm0,3.584a.448.448,0,0,1-.448.448H6.824a.448.448,0,0,1,0-.9H11.3a.448.448,0,0,1,.448.448Zm0,3.584a.448.448,0,0,1-.448.448H6.824a.448.448,0,1,1,0-.9H11.3a.448.448,0,0,1,.448.448ZM5.059,3.661a.672.672,0,1,1-.95,0,.945.945,0,0,1,.1-.085.568.568,0,0,1,.116-.058.581.581,0,0,1,.126-.04.634.634,0,0,1,.26,0,.585.585,0,0,1,.125.04.561.561,0,0,1,.117.058A.9.9,0,0,1,5.059,3.661Zm0,3.584a.672.672,0,1,1-.95,0,.945.945,0,0,1,.1-.085A.568.568,0,0,1,4.328,7.1a.581.581,0,0,1,.126-.04.634.634,0,0,1,.26,0,.585.585,0,0,1,.125.04.561.561,0,0,1,.117.058.9.9,0,0,1,.1.085Zm0,3.584a.67.67,0,0,1,0,.95.923.923,0,0,1-.1.085.956.956,0,0,1-.117.063,1.006,1.006,0,0,1-.125.036.629.629,0,0,1-.26,0,.992.992,0,0,1-.126-.036.983.983,0,0,1-.116-.063.97.97,0,0,1-.1-.085.671.671,0,0,1,0-.95.945.945,0,0,1,.1-.085.568.568,0,0,1,.116-.058.58.58,0,0,1,.126-.04.634.634,0,0,1,.26,0,.585.585,0,0,1,.125.04.561.561,0,0,1,.117.058.9.9,0,0,1,.1.085Z" transform="translate(-1 -1)" fill="#1b3997"/>
    </g>
  </g>
</svg>
