<svg xmlns="http://www.w3.org/2000/svg" xmlns:xlink="http://www.w3.org/1999/xlink" width="79.273" height="79.211" viewBox="0 0 79.273 79.211">
  <defs>
    <clipPath id="clip-path">
      <rect id="Rectangle_30184" data-name="Rectangle 30184" width="79.272" height="37.525" fill="#fff" stroke="#707070" stroke-width="1"/>
    </clipPath>
  </defs>
  <g id="Group_88669" data-name="Group 88669" transform="translate(-15482 19057.467)">
    <g id="noun-male-1563619" transform="translate(15482 -19057.467)">
      <path id="Path_134598" data-name="Path 134598" d="M34.228,83.65a28.192,28.192,0,0,0,22.28-45.522L76.582,18.053V30.707a3.53,3.53,0,0,0,7.059,0V9.53A3.53,3.53,0,0,0,80.112,6H58.935a3.53,3.53,0,1,0,0,7.059H71.588L51.514,33.133A28.236,28.236,0,1,0,34.228,83.65Zm0-49.413A21.177,21.177,0,1,1,13.051,55.413,21.177,21.177,0,0,1,34.228,34.236Z" transform="translate(-5.149 -5.219)" fill="#6baee8"/>
      <path id="Path_134598_-_Outline" data-name="Path 134598 - Outline" d="M34.2,84.461A29.019,29.019,0,1,1,51.474,32.13l18.26-18.26H58.966a4.31,4.31,0,1,1,0-8.621H80.143a4.315,4.315,0,0,1,4.31,4.31V30.737a4.31,4.31,0,1,1-8.621,0V19.969L57.573,38.228A28.973,28.973,0,0,1,34.3,84.461h-.1Zm0-56.472a27.455,27.455,0,1,0,0,54.911h.1A27.411,27.411,0,0,0,55.923,38.638l-.424-.544L77.394,16.2V30.737a2.749,2.749,0,0,0,5.5,0V9.56a2.752,2.752,0,0,0-2.749-2.749H58.966a2.749,2.749,0,1,0,0,5.5H73.5L51.609,34.2l-.544-.424A27.422,27.422,0,0,0,34.2,27.989ZM34.259,77.4a21.892,21.892,0,1,1,8.547-1.726A21.821,21.821,0,0,1,34.259,77.4Zm0-42.354a20.33,20.33,0,1,0,7.939,1.6A20.268,20.268,0,0,0,34.259,35.048Z" transform="translate(-5.18 -5.25)" fill="#6baee8"/>
    </g>
    <g id="Mask_Group_78877" data-name="Mask Group 78877" transform="translate(15482 -19057.467)" clip-path="url(#clip-path)">
      <g id="noun-male-1563619-2" data-name="noun-male-1563619" transform="translate(0 0)">
        <path id="Path_134598-2" data-name="Path 134598" d="M34.228,83.65a28.192,28.192,0,0,0,22.28-45.522L76.582,18.053V30.707a3.53,3.53,0,0,0,7.059,0V9.53A3.53,3.53,0,0,0,80.112,6H58.935a3.53,3.53,0,1,0,0,7.059H71.588L51.514,33.133A28.236,28.236,0,1,0,34.228,83.65Zm0-49.413A21.177,21.177,0,1,1,13.051,55.413,21.177,21.177,0,0,1,34.228,34.236Z" transform="translate(-5.149 -5.219)" fill="#cecece"/>
        <path id="Path_134598_-_Outline-2" data-name="Path 134598 - Outline" d="M34.2,84.461A29.019,29.019,0,1,1,51.474,32.13l18.26-18.26H58.966a4.31,4.31,0,1,1,0-8.621H80.143a4.315,4.315,0,0,1,4.31,4.31V30.737a4.31,4.31,0,1,1-8.621,0V19.969L57.573,38.228A28.973,28.973,0,0,1,34.3,84.461h-.1Zm0-56.472a27.455,27.455,0,1,0,0,54.911h.1A27.411,27.411,0,0,0,55.923,38.638l-.424-.544L77.394,16.2V30.737a2.749,2.749,0,0,0,5.5,0V9.56a2.752,2.752,0,0,0-2.749-2.749H58.966a2.749,2.749,0,1,0,0,5.5H73.5L51.609,34.2l-.544-.424A27.422,27.422,0,0,0,34.2,27.989ZM34.259,77.4a21.892,21.892,0,1,1,8.547-1.726A21.821,21.821,0,0,1,34.259,77.4Zm0-42.354a20.33,20.33,0,1,0,7.939,1.6A20.268,20.268,0,0,0,34.259,35.048Z" transform="translate(-5.18 -5.25)" fill="#cecece"/>
      </g>
    </g>
  </g>
</svg>
